<svg xmlns="http://www.w3.org/2000/svg"><defs/><g fill="#ff7b00"><g transform="translate(0, 0)"><path d="M0 44.90L1.55 43.95L13.25 15.60L21.75 14.85L31.75 41.85Q32.25 43.15 32.45 43.55Q32.65 43.95 33.20 44.65L34.10 45.80L33.80 49.35L19.75 49.35L19.25 44.60L22.80 43.70L21.20 38.65L11.05 38.80L9.95 41.95Q9.80 42.40 9.80 42.70Q9.80 43.05 9.93 43.23Q10.05 43.40 10.35 43.50L13.80 44.95L13.30 49.35L0.20 49.35L0 44.90M16.35 23.40L13.05 33L19.50 33.30L16.35 23.40ZM36.40 44.25L40.05 43.25L40.05 24.10Q40.05 22.80 39.85 22.38Q39.65 21.95 38.80 21.60L36.20 20.10L36.45 15.65L52.50 15.65L52.70 20.75L49.10 21.75L49.10 41.25Q49.10 42.45 49.28 42.80Q49.45 43.15 50.20 43.50L52.75 45.05L52.60 49.35L36.65 49.35L36.40 44.25Z
M0.20 44.25L3.85 43.25L3.85 24.20Q3.85 22.90 3.65 22.48Q3.45 22.05 2.60 21.70L0 20.25L0.30 16.20Q4.10 15.60 7.50 15.33Q10.90 15.05 14.80 15.05Q20.20 15.05 23.48 16.20Q26.75 17.35 28.28 19.80Q29.80 22.25 29.80 26.30Q29.80 31.55 26.03 34.55Q22.25 37.55 15.70 37.55L12.95 37.45L12.95 41.25Q12.95 42.45 13.13 42.80Q13.30 43.15 14 43.50L17.05 45.30L16.85 49.35L0.45 49.35L0.20 44.25M16.15 32Q18.85 32 20.10 31.45Q20.65 29 20.65 26.30Q20.65 23.35 19.53 22.10Q18.40 20.85 15.90 20.85Q15.05 20.85 12.95 21.05L12.95 31.70Q14.30 32 16.15 32ZM43.10 49.55Q37.70 49.55 32.30 49.15L32.05 44.25L35.70 43.25L35.70 24.20Q35.70 22.90 35.50 22.48Q35.30 22.05 34.45 21.70L31.85 20.25L32.15 16.10Q40.25 15.05 46.05 15.05Q53.15 15.05 56.45 17.15Q59.75 19.25 59.75 23.80Q59.75 26.05 59.05 27.77Q58.35 29.50 56.90 30.90Q61.90 33.15 61.90 38.20Q61.90 42.70 59.40 45.45Q56.90 48.20 52.05 49.05Q50.25 49.55 43.10 49.55M50.45 29.30Q50.95 28 50.95 24.95Q50.95 22.85 49.98 21.85Q49 20.85 47 20.75Q45.70 20.75 44.40 20.85L44.40 29.20Q45.25 29.15 46.60 29.15Q48.65 29.15 50.45 29.30M48.35 43.35Q51.20 43.35 52.40 42.85Q52.90 40.85 52.90 39.30Q52.90 36.80 51.60 35.75Q50.30 34.70 47.20 34.70Q46.55 34.70 45.55 34.80L44.40 34.85L44.40 43Q46.15 43.35 48.35 43.35ZM79.90 44.85L82.50 44.20L77.40 37.35L73.70 42.65Q73.50 42.90 73.50 43.20Q73.50 43.55 74.05 44L75.80 45.40L75.45 49.20L63.35 49.20L63.10 44.90L64.30 43.75L73.75 32.50L65.70 21.65L63.20 18.65L63.35 15.65L78.85 15.65L79.40 20.15L76.75 20.80L81.60 27.30L85.15 22.15Q85.30 21.90 85.30 21.70Q85.30 21.30 84.80 20.85L83 19.50L83.35 15.65L95.50 15.65L95.80 19.95L94.55 21.10L85.25 32.20L93.60 43.35L96.10 46.35L95.90 49.35L80.20 49.35L79.90 44.85Z"/></g></g></svg>
