<svg xmlns="http://www.w3.org/2000/svg" viewBox="0 0 512 341.33">
  <path fill="#de2910" d="M0 0h512v341.33H0z"/>
  <path fill="#ffde00" d="M123.64 126.31l16.15-49.46-42.06 30.69 16.27-49.46-42.3 30.48-42.3-30.48 16.27 49.46L2.3 126.31h163.4zM203.2 56.46l-4.14-12.72-4.13 12.72-13.37.03 10.8 7.89-4.1 12.73 10.82-7.85 10.82 7.85-4.1-12.73 10.8-7.89zM228.6 98.6l-4.14-12.73-4.13 12.73-13.37.02 10.8 7.89-4.1 12.73 10.82-7.85 10.82 7.85-4.1-12.73 10.8-7.89zM228.6 149.25l-4.14-12.73-4.13 12.73-13.37.02 10.8 7.89-4.1 12.73 10.82-7.86 10.82 7.86-4.1-12.73 10.8-7.89zM203.2 191.07l-4.14-12.73-4.13 12.73-13.37.02 10.8 7.89-4.1 12.73 10.82-7.85 10.82 7.85-4.1-12.73 10.8-7.89z"/>
</svg>
